# xmcd CD database file
#
# Track frame offsets:
#	151
#	20772
#	55804
#	84789
#	115487
#	143309
#	172495
#	208482
#
# Disc length: 3113 seconds
#
# Revision: 0
# Processed by: cddbd v1.5.1PL0 Copyright (c) Steve Scherf et al.
# Submitted via: CDex 1.51
#
DISCID=710c2708
DTITLE=Olivier Hutman trio - Five in Green
DYEAR=2002
DGENRE=Jazz
TTITLE0=Papa Charles Blues
TTITLE1=No Lies?
TTITLE2=Three for Vee
TTITLE3=Five in Green
TTITLE4=Slow Waltz (finishing in Db Major)
TTITLE5=Grepsn Party
TTITLE6=A Gal in Calico
TTITLE7=I Concentrate on You
EXTD=YEAR: 2002
EXTT0=
EXTT1=
EXTT2=
EXTT3=
EXTT4=
EXTT5=
EXTT6=
EXTT7=
PLAYORDER=
